<svg xmlns="http://www.w3.org/2000/svg" width="222" height="50" viewBox="0 0 222 50" fill="none"><rect x="0.50415" width="221.103" height="50" rx="5" fill="#1E1E1E"></rect><path fill-rule="evenodd" clip-rule="evenodd" d="M86.5196 12.2409C86.5617 13.1693 86.2298 14.0747 85.6014 14.7458C84.8992 15.4921 83.9198 15.8974 82.908 15.8606C81.356 15.8481 79.9625 14.8851 79.3718 13.4168C78.7812 11.9486 79.1084 10.2611 80.2023 9.13471C80.913 8.39239 81.8925 7.98432 82.908 8.00747C83.4256 8.00571 83.938 8.11227 84.4139 8.32059C84.8569 8.5034 85.2513 8.79097 85.5647 9.15976L84.9158 9.82358C84.4204 9.22073 83.6767 8.89134 82.908 8.93431C82.1353 8.93043 81.3944 9.2488 80.8561 9.81599C80.3179 10.3832 80.0287 11.1502 80.0554 11.9403C80.039 13.1341 80.7263 14.2208 81.7975 14.6948C82.8687 15.1688 84.1134 14.9369 84.9525 14.1071C85.3293 13.6894 85.5466 13.147 85.5647 12.579H82.908V11.6773H86.4707C86.5033 11.8633 86.5197 12.0519 86.5196 12.2409ZM92.1269 9.10966H88.8213V11.4894H91.8331V12.3912H88.8213V14.7709H92.1269V15.6977H87.8419V8.18282H92.1269V9.10966ZM96.1426 15.6977H95.1999V9.10966H93.1431V8.18282H98.2484V9.10966H96.1426V15.6977ZM101.848 15.6977V8.18282H102.79V15.6977H101.848ZM106.978 15.6977H106.035V9.10966H103.978V8.18282H109.022V9.10966H106.978V15.6977ZM118.584 14.7208C117.094 16.2366 114.687 16.2366 113.197 14.7208C111.753 13.1567 111.753 10.7113 113.197 9.14723C113.91 8.41296 114.879 8 115.89 8C116.902 8 117.871 8.41296 118.584 9.14723C120.034 10.7088 120.034 13.1592 118.584 14.7208ZM113.895 14.0945C114.998 15.2187 116.783 15.2187 117.886 14.0945C118.97 12.8723 118.97 11.0082 117.886 9.786C116.783 8.66182 114.998 8.66182 113.895 9.786C112.811 11.0082 112.811 12.8723 113.895 14.0945ZM120.996 15.6977V8.18282H122.147L125.721 14.0319V8.18282H126.664V15.6977H125.685L121.951 9.57308V15.6977H120.996ZM111.887 26.657C113.277 26.6297 114.619 27.1809 115.604 28.1844C116.59 29.1879 117.135 30.5577 117.115 31.98C117.115 34.9166 114.79 37.2984 111.92 37.303C109.049 37.3076 106.717 34.9332 106.708 31.9967C106.699 29.0601 109.017 26.6708 111.887 26.657ZM111.887 35.2114C112.699 35.1922 113.469 34.8382 114.022 34.2297C114.576 33.6213 114.865 32.81 114.825 31.98C114.822 30.6532 114.026 29.4632 112.819 28.9792C111.611 28.4952 110.237 28.8155 109.354 29.787C108.471 30.7585 108.257 32.1836 108.816 33.3809C109.376 34.5781 110.593 35.304 111.887 35.2114ZM100.489 26.657H100.477C101.867 26.6297 103.208 27.1809 104.194 28.1844C105.179 29.1879 105.724 30.5577 105.704 31.98C105.704 34.9182 103.377 37.3008 100.505 37.3031C97.6331 37.3054 95.3023 34.9266 95.2978 31.9884C95.2933 29.0502 97.6167 26.6639 100.489 26.657ZM100.489 35.2114H100.477C101.289 35.1922 102.059 34.8382 102.612 34.2297C103.165 33.6213 103.455 32.81 103.415 31.98C103.411 30.6521 102.614 29.4616 101.405 28.9787C100.196 28.4957 98.8211 28.8187 97.939 29.7928C97.0569 30.767 96.8471 32.194 97.4101 33.3904C97.9732 34.5869 99.1943 35.3092 100.489 35.2114ZM86.9114 28.2977L94.3429 28.2351C94.4282 28.7017 94.4692 29.1757 94.4653 29.6504C94.5229 31.599 93.8381 33.4942 92.5554 34.9359C91.0896 36.5061 89.0316 37.351 86.9114 37.253C83.9474 37.371 81.1577 35.8206 79.6414 33.2124C78.1251 30.6042 78.1251 27.3564 79.6414 24.7483C81.1577 22.1401 83.9474 20.5897 86.9114 20.7077C88.9936 20.6892 90.9943 21.5341 92.4575 23.0498L90.9026 24.6405C89.8298 23.5809 88.3901 22.9999 86.8992 23.0248C83.6536 23.0248 81.0226 25.7164 81.0226 29.0367C81.0226 32.357 83.6536 35.0486 86.8992 35.0486C88.4253 35.1108 89.9061 34.5103 90.9761 33.3953C91.686 32.616 92.1174 31.6141 92.2004 30.5522H86.9114V28.2977ZM142.384 30.0512L142.641 30.6148L135.675 33.5582C136.112 34.5754 137.112 35.2162 138.197 35.1739C139.245 35.1766 140.217 34.6152 140.756 33.6959L142.531 34.9484C141.565 36.4282 139.937 37.3127 138.197 37.3031C136.814 37.3238 135.483 36.7684 134.508 35.7645C133.534 34.7606 133 33.3945 133.03 31.98C132.946 30.5979 133.424 29.2417 134.352 28.2333C135.28 27.2249 136.574 26.6543 137.928 26.657C139.957 26.7334 141.73 28.0838 142.384 30.0512ZM135.283 31.8297L139.936 29.8508C139.57 29.1127 138.808 28.6692 138.001 28.7236C137.235 28.7589 136.516 29.1081 136.004 29.6925C135.493 30.2768 135.233 31.0471 135.283 31.8297ZM129.627 36.99V21.3339H131.916V36.99H129.627ZM125.881 27.8468V26.9701H127.986V36.4514C127.986 40.3842 125.77 41.9999 123.089 41.9999C121.068 42.0123 119.242 40.7685 118.474 38.8562L120.469 38.0045C120.886 39.1205 121.922 39.8678 123.089 39.8957C124.803 39.8957 125.868 38.8061 125.868 36.7645V36.0005H125.795C125.107 36.8125 124.103 37.2711 123.053 37.253C120.274 37.1151 118.09 34.77 118.09 31.9237C118.09 29.0774 120.274 26.7322 123.053 26.5943C124.099 26.5929 125.097 27.0486 125.795 27.8468H125.881ZM123.261 35.2114H123.248C124.044 35.1801 124.793 34.8171 125.32 34.2067C125.847 33.5963 126.107 32.7917 126.04 31.98C126.1 31.1721 125.839 30.3734 125.316 29.765C124.793 29.1566 124.052 28.7901 123.261 28.7486C121.624 28.8962 120.368 30.2988 120.368 31.98C120.368 33.6612 121.624 35.0638 123.261 35.2114ZM153.121 21.3339C154.9 21.2032 156.601 22.0998 157.529 23.6573C158.457 25.2148 158.457 27.1723 157.529 28.7298C156.601 30.2873 154.9 31.1839 153.121 31.0532H149.926V36.99H147.636V21.3339H153.121ZM153.109 28.8488L153.158 28.8864C154.608 28.8864 155.784 27.6836 155.784 26.1998C155.784 24.7161 154.608 23.5132 153.158 23.5132H149.913V28.8488H153.109ZM167.225 26.5943L167.286 26.6319C169.894 26.6319 171.926 28.2226 171.926 30.9655V36.99H169.723V35.7375H169.649C169.012 36.7504 167.885 37.3267 166.711 37.2405C165.758 37.3125 164.817 36.9872 164.102 36.3384C163.387 35.6897 162.959 34.7727 162.915 33.7961C162.915 31.5291 165.131 30.2767 167.323 30.2767C168.155 30.2731 168.975 30.4796 169.71 30.8778V30.715C169.652 30.1133 169.36 29.5608 168.899 29.1816C168.439 28.8024 167.849 28.6284 167.262 28.6985C166.406 28.6269 165.59 29.0789 165.18 29.8508L163.148 28.9866C163.92 27.4299 165.522 26.4902 167.225 26.5943ZM166.943 35.1739L167.005 35.2114C168.384 35.177 169.527 34.1085 169.686 32.7065C169.051 32.3437 168.332 32.1621 167.605 32.1804C166.454 32.1804 165.156 32.5937 165.156 33.8462C165.156 34.7856 166.197 35.1739 166.943 35.1739ZM179.958 26.9701H182.504L176.236 41.7369H173.848L176.175 36.4639L172.098 26.9701H174.546L177.264 33.7586H177.338L179.958 26.9701ZM159.377 36.99V21.3339H161.667V36.99H159.377ZM68.7241 23.9583C69.0336 24.1373 69.2185 24.4576 69.2185 24.8151C69.2185 25.1726 69.0336 25.493 68.7241 25.6715L63.1066 28.9138L59.1631 25.1019L63.4779 20.931L68.7241 23.9583ZM62.5874 20.4166L58.4522 24.4144L44.1616 10.6L56.8142 17.0837L62.5874 20.4166ZM44.3718 39.4L58.4522 25.7893L62.2161 29.4282L56.8359 32.5341L44.3718 39.4ZM43.3175 11.1592L57.741 25.1016L43.3041 39.0574L43.3175 11.1592Z" fill="white"></path></svg>