<svg xmlns="http://www.w3.org/2000/svg" width="16" height="16" viewBox="0 0 16 16" fill="none"><path d="M11.9467 7.74646C11.9149 7.66463 11.8674 7.58987 11.8067 7.52646L8.47333 4.19313C8.41117 4.13097 8.33738 4.08167 8.25617 4.04803C8.17495 4.01438 8.08791 3.99707 8 3.99707C7.82247 3.99707 7.6522 4.0676 7.52667 4.19313C7.46451 4.25529 7.4152 4.32908 7.38156 4.4103C7.34792 4.49151 7.33061 4.57856 7.33061 4.66646C7.33061 4.844 7.40113 5.01426 7.52667 5.1398L9.72667 7.33313H4.66667C4.48986 7.33313 4.32029 7.40337 4.19526 7.52839C4.07024 7.65342 4 7.82299 4 7.9998C4 8.17661 4.07024 8.34618 4.19526 8.4712C4.32029 8.59623 4.48986 8.66646 4.66667 8.66646H9.72667L7.52667 10.8598C7.46418 10.9218 7.41459 10.9955 7.38074 11.0767C7.34689 11.158 7.32947 11.2451 7.32947 11.3331C7.32947 11.4211 7.34689 11.5083 7.38074 11.5895C7.41459 11.6708 7.46418 11.7445 7.52667 11.8065C7.58864 11.8689 7.66238 11.9185 7.74362 11.9524C7.82486 11.9862 7.91199 12.0037 8 12.0037C8.08801 12.0037 8.17515 11.9862 8.25638 11.9524C8.33762 11.9185 8.41136 11.8689 8.47333 11.8065L11.8067 8.47313C11.8674 8.40973 11.9149 8.33497 11.9467 8.25313C12.0133 8.09082 12.0133 7.90877 11.9467 7.74646Z" fill="black"></path></svg>